# xmcd
#
# Track frame offsets: 
#        150
#        16655
#        31725
#        42817
#        56272
#        65250
#        79740
#        90605
#        102897
#        113782
#
# Disc length: 1698 seconds
#
# Revision: 3
# Processed by: cddbd v1.4PL0 Copyright (c) Steve Scherf et al.
# Submitted via: ExactAudioCopy v0.90b4
#
DISCID=6706a00a
DTITLE=George Jones - Double Pack (Friends In High Places) - Disc 1
DYEAR=1900
DGENRE=Country
TTITLE0=A Few Ole Country Boys (Duet With Randy Travis)
TTITLE1=All Fall Down (Duet With Emmylou Harris)
TTITLE2=Fiddle And Guitar Band (Duet With Charlie Daniels)
TTITLE3=All That We've Got Left (Duet With Vern Gosdin)
TTITLE4=Love's Gonna Live Here (Duet With Buck Owens)
TTITLE5=If Could Bottle This Up (Duet With Shelby Lynne)
TTITLE6=I've Been There (Duet With Tim Mensy)
TTITLE7=You Can't Do Wrong And Get By (Duet With Ricky Skaggs)
TTITLE8=It Hurts As Much In Texas (Duet With Ricky Van Shelton)
TTITLE9=Traveller's Prayer (Duet With Sweethearts Of The Rodeo)
EXTD=
EXTT0=
EXTT1=
EXTT2=
EXTT3=
EXTT4=
EXTT5=
EXTT6=
EXTT7=
EXTT8=
EXTT9=
PLAYORDER=
